<mxfile host="app.diagrams.net" agent="Mozilla/5.0 (Windows NT 10.0; Win64; x64) AppleWebKit/537.36 (KHTML, like Gecko) Chrome/136.0.0.0 Safari/537.36" version="27.0.8">
  <diagram name="Página-1" id="PagNUUJPUL7erKmYHPUA">
    <mxGraphModel dx="1350" dy="1136" grid="0" gridSize="10" guides="1" tooltips="1" connect="1" arrows="1" fold="1" page="0" pageScale="1" pageWidth="827" pageHeight="1169" math="0" shadow="0">
      <root>
        <mxCell id="0" />
        <mxCell id="1" parent="0" />
        <mxCell id="nHAEF9RpMiKaH4HPYqNc-6" style="edgeStyle=orthogonalEdgeStyle;rounded=0;orthogonalLoop=1;jettySize=auto;html=1;entryX=0;entryY=0.5;entryDx=0;entryDy=0;" parent="1" source="nHAEF9RpMiKaH4HPYqNc-1" target="nHAEF9RpMiKaH4HPYqNc-2" edge="1">
          <mxGeometry relative="1" as="geometry" />
        </mxCell>
        <mxCell id="nHAEF9RpMiKaH4HPYqNc-7" style="edgeStyle=orthogonalEdgeStyle;rounded=0;orthogonalLoop=1;jettySize=auto;html=1;entryX=0;entryY=0.5;entryDx=0;entryDy=0;" parent="1" source="nHAEF9RpMiKaH4HPYqNc-1" target="nHAEF9RpMiKaH4HPYqNc-5" edge="1">
          <mxGeometry relative="1" as="geometry" />
        </mxCell>
        <mxCell id="nHAEF9RpMiKaH4HPYqNc-1" value="High-accuracy BP&lt;div&gt;(&lt;i&gt;product-sum 10 it.&lt;/i&gt;)&lt;/div&gt;" style="rounded=0;whiteSpace=wrap;html=1;fillColor=#dae8fc;strokeColor=#6c8ebf;" parent="1" vertex="1">
          <mxGeometry x="40" y="160" width="110" height="50" as="geometry" />
        </mxCell>
        <mxCell id="nHAEF9RpMiKaH4HPYqNc-2" value="Low-accuracy BP&lt;div&gt;(&lt;i&gt;min-sum 10 it.&lt;/i&gt;&lt;span style=&quot;background-color: transparent; color: light-dark(rgb(0, 0, 0), rgb(255, 255, 255));&quot;&gt;)&lt;/span&gt;&lt;/div&gt;&lt;div&gt;&lt;span style=&quot;background-color: transparent; color: light-dark(rgb(0, 0, 0), rgb(255, 255, 255));&quot;&gt;&lt;br&gt;&lt;/span&gt;&lt;/div&gt;&lt;div&gt;&lt;span style=&quot;color: rgb(64, 64, 64); font-family: KaTeX_Math; font-style: italic; text-wrap-mode: nowrap;&quot;&gt;&lt;font style=&quot;font-size: 13px;&quot;&gt;α = 0.9&lt;/font&gt;&lt;/span&gt;&lt;/div&gt;" style="rounded=0;whiteSpace=wrap;html=1;fillColor=#dae8fc;strokeColor=#6c8ebf;" parent="1" vertex="1">
          <mxGeometry x="190" y="80" width="110" height="60" as="geometry" />
        </mxCell>
        <mxCell id="nHAEF9RpMiKaH4HPYqNc-3" value="Low-accuracy BP&lt;div&gt;(&lt;i&gt;min-sum 10 it.&lt;/i&gt;&lt;span style=&quot;background-color: transparent; color: light-dark(rgb(0, 0, 0), rgb(255, 255, 255));&quot;&gt;)&lt;/span&gt;&lt;/div&gt;&lt;div&gt;&lt;span style=&quot;background-color: transparent; color: light-dark(rgb(0, 0, 0), rgb(255, 255, 255));&quot;&gt;&lt;br&gt;&lt;/span&gt;&lt;/div&gt;&lt;div&gt;&lt;span style=&quot;color: rgb(64, 64, 64); font-family: KaTeX_Math; font-style: italic; text-wrap-mode: nowrap;&quot;&gt;&lt;font style=&quot;font-size: 13px;&quot;&gt;α = 0.5&lt;/font&gt;&lt;/span&gt;&lt;/div&gt;" style="rounded=0;whiteSpace=wrap;html=1;fillColor=#dae8fc;strokeColor=#6c8ebf;" parent="1" vertex="1">
          <mxGeometry x="340" y="180" width="110" height="60" as="geometry" />
        </mxCell>
        <mxCell id="nHAEF9RpMiKaH4HPYqNc-9" style="edgeStyle=orthogonalEdgeStyle;rounded=0;orthogonalLoop=1;jettySize=auto;html=1;exitX=1;exitY=0.5;exitDx=0;exitDy=0;entryX=0;entryY=0.5;entryDx=0;entryDy=0;" parent="1" source="nHAEF9RpMiKaH4HPYqNc-5" target="nHAEF9RpMiKaH4HPYqNc-3" edge="1">
          <mxGeometry relative="1" as="geometry" />
        </mxCell>
        <mxCell id="nHAEF9RpMiKaH4HPYqNc-10" style="edgeStyle=orthogonalEdgeStyle;rounded=0;orthogonalLoop=1;jettySize=auto;html=1;entryX=0;entryY=0.5;entryDx=0;entryDy=0;" parent="1" source="nHAEF9RpMiKaH4HPYqNc-5" target="nHAEF9RpMiKaH4HPYqNc-8" edge="1">
          <mxGeometry relative="1" as="geometry" />
        </mxCell>
        <mxCell id="nHAEF9RpMiKaH4HPYqNc-5" value="Low-accuracy BP&lt;div&gt;(&lt;i&gt;min-sum 10 it.&lt;/i&gt;&lt;span style=&quot;background-color: transparent; color: light-dark(rgb(0, 0, 0), rgb(255, 255, 255));&quot;&gt;)&lt;/span&gt;&lt;/div&gt;&lt;div&gt;&lt;span style=&quot;background-color: transparent; color: light-dark(rgb(0, 0, 0), rgb(255, 255, 255));&quot;&gt;&lt;br&gt;&lt;/span&gt;&lt;/div&gt;&lt;div&gt;&lt;span style=&quot;color: rgb(64, 64, 64); font-family: KaTeX_Math; font-style: italic; text-wrap-mode: nowrap;&quot;&gt;&lt;font style=&quot;font-size: 13px;&quot;&gt;α = 0.75&lt;/font&gt;&lt;/span&gt;&lt;/div&gt;" style="rounded=0;whiteSpace=wrap;html=1;fillColor=#e1d5e7;strokeColor=#9673a6;" parent="1" vertex="1">
          <mxGeometry x="190" y="230" width="110" height="60" as="geometry" />
        </mxCell>
        <mxCell id="nHAEF9RpMiKaH4HPYqNc-8" value="&lt;div style=&quot;line-height: 60%;&quot;&gt;Low-accuracy BP&lt;div&gt;&lt;br&gt;&lt;/div&gt;&lt;div&gt;+&lt;/div&gt;&lt;div&gt;LSD or OSD&lt;/div&gt;&lt;div style=&quot;line-height: 100%;&quot;&gt;(&lt;i&gt;min-sum 2 it.&lt;/i&gt;)&lt;/div&gt;&lt;/div&gt;" style="rounded=0;whiteSpace=wrap;html=1;fillColor=#e1d5e7;strokeColor=#9673a6;" parent="1" vertex="1">
          <mxGeometry x="340" y="280" width="110" height="60" as="geometry" />
        </mxCell>
        <mxCell id="nHAEF9RpMiKaH4HPYqNc-11" value="" style="endArrow=none;dashed=1;html=1;rounded=0;" parent="1" edge="1">
          <mxGeometry width="50" height="50" relative="1" as="geometry">
            <mxPoint x="40" y="400" as="sourcePoint" />
            <mxPoint x="40" y="160" as="targetPoint" />
          </mxGeometry>
        </mxCell>
        <mxCell id="nHAEF9RpMiKaH4HPYqNc-12" value="" style="endArrow=none;dashed=1;html=1;rounded=0;" parent="1" edge="1">
          <mxGeometry width="50" height="50" relative="1" as="geometry">
            <mxPoint x="150" y="400" as="sourcePoint" />
            <mxPoint x="150" y="160" as="targetPoint" />
          </mxGeometry>
        </mxCell>
        <mxCell id="nHAEF9RpMiKaH4HPYqNc-13" value="" style="endArrow=none;dashed=1;html=1;rounded=0;" parent="1" edge="1">
          <mxGeometry width="50" height="50" relative="1" as="geometry">
            <mxPoint x="190" y="400" as="sourcePoint" />
            <mxPoint x="189" y="80" as="targetPoint" />
          </mxGeometry>
        </mxCell>
        <mxCell id="nHAEF9RpMiKaH4HPYqNc-14" value="" style="endArrow=none;dashed=1;html=1;rounded=0;" parent="1" edge="1">
          <mxGeometry width="50" height="50" relative="1" as="geometry">
            <mxPoint x="300" y="400" as="sourcePoint" />
            <mxPoint x="299" y="80" as="targetPoint" />
          </mxGeometry>
        </mxCell>
        <mxCell id="nHAEF9RpMiKaH4HPYqNc-15" value="" style="endArrow=none;dashed=1;html=1;rounded=0;entryX=0;entryY=0;entryDx=0;entryDy=0;" parent="1" target="nHAEF9RpMiKaH4HPYqNc-3" edge="1">
          <mxGeometry width="50" height="50" relative="1" as="geometry">
            <mxPoint x="340" y="400" as="sourcePoint" />
            <mxPoint x="340" y="190" as="targetPoint" />
          </mxGeometry>
        </mxCell>
        <mxCell id="nHAEF9RpMiKaH4HPYqNc-16" value="" style="endArrow=none;dashed=1;html=1;rounded=0;" parent="1" edge="1">
          <mxGeometry width="50" height="50" relative="1" as="geometry">
            <mxPoint x="450" y="400" as="sourcePoint" />
            <mxPoint x="450" y="180" as="targetPoint" />
          </mxGeometry>
        </mxCell>
        <mxCell id="nHAEF9RpMiKaH4HPYqNc-17" value="" style="endArrow=classic;startArrow=classic;html=1;rounded=0;" parent="1" edge="1">
          <mxGeometry width="50" height="50" relative="1" as="geometry">
            <mxPoint x="40" y="390" as="sourcePoint" />
            <mxPoint x="150" y="390" as="targetPoint" />
          </mxGeometry>
        </mxCell>
        <mxCell id="nHAEF9RpMiKaH4HPYqNc-18" value="" style="endArrow=classic;startArrow=classic;html=1;rounded=0;" parent="1" edge="1">
          <mxGeometry width="50" height="50" relative="1" as="geometry">
            <mxPoint x="190" y="390" as="sourcePoint" />
            <mxPoint x="300" y="390" as="targetPoint" />
          </mxGeometry>
        </mxCell>
        <mxCell id="nHAEF9RpMiKaH4HPYqNc-19" value="" style="endArrow=classic;startArrow=classic;html=1;rounded=0;" parent="1" edge="1">
          <mxGeometry width="50" height="50" relative="1" as="geometry">
            <mxPoint x="340" y="390" as="sourcePoint" />
            <mxPoint x="450" y="390" as="targetPoint" />
          </mxGeometry>
        </mxCell>
        <mxCell id="nHAEF9RpMiKaH4HPYqNc-20" value="" style="endArrow=none;dashed=1;html=1;rounded=0;" parent="1" edge="1">
          <mxGeometry width="50" height="50" relative="1" as="geometry">
            <mxPoint x="450" y="400" as="sourcePoint" />
            <mxPoint x="450" y="180" as="targetPoint" />
          </mxGeometry>
        </mxCell>
        <mxCell id="nHAEF9RpMiKaH4HPYqNc-21" value="&lt;font style=&quot;font-size: 10px;&quot;&gt;10 iterations&lt;/font&gt;" style="text;html=1;align=center;verticalAlign=middle;whiteSpace=wrap;rounded=0;" parent="1" vertex="1">
          <mxGeometry x="50" y="370" width="90" height="20" as="geometry" />
        </mxCell>
        <mxCell id="nHAEF9RpMiKaH4HPYqNc-22" value="&lt;font style=&quot;font-size: 10px;&quot;&gt;10 iterations&lt;/font&gt;" style="text;html=1;align=center;verticalAlign=middle;whiteSpace=wrap;rounded=0;" parent="1" vertex="1">
          <mxGeometry x="200" y="370" width="90" height="20" as="geometry" />
        </mxCell>
        <mxCell id="nHAEF9RpMiKaH4HPYqNc-23" value="&lt;font style=&quot;font-size: 10px;&quot;&gt;10 iterations&lt;/font&gt;" style="text;html=1;align=center;verticalAlign=middle;whiteSpace=wrap;rounded=0;" parent="1" vertex="1">
          <mxGeometry x="350" y="370" width="90" height="20" as="geometry" />
        </mxCell>
      </root>
    </mxGraphModel>
  </diagram>
</mxfile>
